<svg width="512" height="512" viewBox="0 0 512 512" fill="none" xmlns="http://www.w3.org/2000/svg">
<rect width="512" height="512" fill="#3BB4FF"/>
<path d="M146.32 153.68C135.28 154.4 127.24 157.76 122.2 163.76C117.16 169.76 114.64 178.4 114.64 189.68V197.96H145.24C158.68 197.96 165.4 203.6 165.4 214.88C165.4 226.16 158.68 231.8 145.24 231.8H114.64V354.56C114.64 361.52 112.48 366.8 108.16 370.4C104.08 374 98.8 375.8 92.32 375.8C85.84 375.8 80.44 374 76.12 370.4C71.8 366.8 69.64 361.52 69.64 354.56V231.8H51.64C38.2 231.8 31.48 226.16 31.48 214.88C31.48 203.6 38.2 197.96 51.64 197.96H69.64V195.44C69.64 172.88 75.52 155.24 87.28 142.52C99.28 129.56 116.08 122.24 137.68 120.56L147.04 119.84C156.64 119.12 163.36 120.2 167.2 123.08C171.28 125.72 173.32 129.92 173.32 135.68C173.32 146 167.44 151.76 155.68 152.96L146.32 153.68ZM395.583 193.64C414.783 193.64 429.423 199.4 439.503 210.92C449.823 222.2 454.983 240.56 454.983 266V354.56C454.983 361.52 452.823 366.92 448.503 370.76C444.423 374.36 439.023 376.16 432.303 376.16C425.823 376.16 420.423 374.36 416.103 370.76C412.023 366.92 409.983 361.52 409.983 354.56V266C409.983 252.8 407.583 243.44 402.783 237.92C398.223 232.16 391.143 229.28 381.543 229.28C369.783 229.28 360.423 233.36 353.463 241.52C346.503 249.44 343.023 260.36 343.023 274.28V354.56C343.023 361.52 340.863 366.92 336.543 370.76C332.463 374.36 327.183 376.16 320.703 376.16C314.223 376.16 308.823 374.36 304.503 370.76C300.183 366.92 298.023 361.52 298.023 354.56V266C298.023 252.8 295.623 243.44 290.823 237.92C286.263 232.16 279.183 229.28 269.583 229.28C257.823 229.28 248.463 233.36 241.503 241.52C234.783 249.44 231.423 260.36 231.423 274.28V354.56C231.423 361.52 229.263 366.92 224.943 370.76C220.623 374.36 215.223 376.16 208.743 376.16C202.263 376.16 196.863 374.36 192.543 370.76C188.463 366.92 186.423 361.52 186.423 354.56V215.24C186.423 208.52 188.583 203.36 192.903 199.76C197.223 196.16 202.623 194.36 209.103 194.36C215.343 194.36 220.383 196.16 224.223 199.76C228.303 203.12 230.343 208.04 230.343 214.52V223.16C235.863 213.56 243.183 206.24 252.303 201.2C261.663 196.16 272.343 193.64 284.343 193.64C310.743 193.64 328.383 204.68 337.263 226.76C342.543 216.68 350.343 208.64 360.663 202.64C370.983 196.64 382.623 193.64 395.583 193.64Z" fill="white"/>
</svg>
